<svg width="310" height="352" viewBox="0 0 310 352" fill="none" xmlns="http://www.w3.org/2000/svg">
<g clip-path="url(#clip0_2_13)">
<path d="M291.424 99.2101L204.021 99.2101C202.36 99.2101 200.766 98.5516 199.592 97.3795C198.417 96.2074 197.757 94.6177 197.757 92.9601V29.4731C197.757 27.8163 198.417 26.2273 199.591 25.0557C200.765 23.8842 202.357 23.226 204.018 23.226L291.427 23.226C293.087 23.226 294.68 23.8842 295.854 25.0557C297.028 26.2273 297.688 27.8163 297.688 29.4731V92.9601C297.688 94.6177 297.028 96.2074 295.853 97.3795C294.678 98.5516 293.085 99.2101 291.424 99.2101V99.2101Z" fill="white"/>
<path d="M197.495 92.9597V29.4727C197.495 27.7466 198.182 26.0912 199.406 24.8707C200.629 23.6502 202.288 22.9645 204.018 22.9645H291.427C293.156 22.9645 294.816 23.6502 296.039 24.8707C297.262 26.0912 297.949 27.7466 297.949 29.4727V92.9597C297.949 93.8148 297.78 94.6614 297.452 95.4514C297.125 96.2414 296.644 96.9592 296.038 97.5638C295.432 98.1684 294.713 98.648 293.921 98.9752C293.129 99.3024 292.281 99.4708 291.424 99.4708H204.021C203.164 99.4708 202.315 99.3024 201.524 98.9752C200.732 98.648 200.012 98.1684 199.407 97.5638C198.801 96.9592 198.32 96.2414 197.992 95.4514C197.664 94.6614 197.495 93.8148 197.495 92.9597V92.9597ZM204.018 23.4867C202.427 23.4872 200.902 24.118 199.777 25.2406C198.652 26.3631 198.02 27.8854 198.02 29.4727V92.9597C198.02 94.5481 198.653 96.0713 199.778 97.1945C200.904 98.3176 202.431 98.9486 204.023 98.9486H291.424C293.016 98.9486 294.542 98.3176 295.668 97.1945C296.793 96.0713 297.426 94.5481 297.426 92.9597V29.4727C297.426 27.8851 296.794 26.3626 295.669 25.24C294.544 24.1174 293.018 23.4867 291.427 23.4867H204.018Z" fill="white"/>
<path d="M197.757 29.4719V34.7617H297.687V29.4719C297.687 27.815 297.027 26.226 295.853 25.0545C294.679 23.8829 293.086 23.2248 291.426 23.2248H204.018C203.196 23.2248 202.382 23.3864 201.622 23.7003C200.862 24.0143 200.172 24.4744 199.591 25.0545C199.01 25.6346 198.548 26.3233 198.234 27.0812C197.919 27.8392 197.757 28.6515 197.757 29.4719V29.4719Z" fill="white"/>
<path d="M231.885 43.3126H227.169C227.114 43.3126 227.061 43.2906 227.021 43.2515C226.982 43.2123 226.96 43.1591 226.96 43.1037C226.96 43.0483 226.982 42.9952 227.021 42.956C227.061 42.9168 227.114 42.8948 227.169 42.8948H231.885C231.94 42.8948 231.994 42.9168 232.033 42.956C232.072 42.9952 232.094 43.0483 232.094 43.1037C232.094 43.1591 232.072 43.2123 232.033 43.2515C231.994 43.2906 231.94 43.3126 231.885 43.3126V43.3126Z" fill="white"/>
<path d="M223.769 43.3126H221.985C221.929 43.3126 221.876 43.2906 221.837 43.2515C221.797 43.2123 221.775 43.1591 221.775 43.1037C221.775 43.0483 221.797 42.9952 221.837 42.956C221.876 42.9168 221.929 42.8948 221.985 42.8948H223.769C223.824 42.8948 223.878 42.9168 223.917 42.956C223.956 42.9952 223.978 43.0483 223.978 43.1037C223.978 43.1591 223.956 43.2123 223.917 43.2515C223.878 43.2906 223.824 43.3126 223.769 43.3126Z" fill="#367CFF"/>
<path d="M223.769 47.0813H221.985C221.929 47.0813 221.876 47.0593 221.837 47.0201C221.797 46.9809 221.775 46.9278 221.775 46.8724C221.775 46.817 221.797 46.7638 221.837 46.7247C221.876 46.6855 221.929 46.6635 221.985 46.6635H223.769C223.824 46.6635 223.878 46.6855 223.917 46.7247C223.956 46.7638 223.978 46.817 223.978 46.8724C223.978 46.9278 223.956 46.9809 223.917 47.0201C223.878 47.0593 223.824 47.0813 223.769 47.0813Z" fill="#367CFF"/>
<path d="M223.769 50.8499H221.985C221.929 50.8499 221.876 50.8279 221.837 50.7888C221.797 50.7496 221.775 50.6964 221.775 50.641C221.775 50.5856 221.797 50.5325 221.837 50.4933C221.876 50.4541 221.929 50.4321 221.985 50.4321H223.769C223.824 50.4321 223.878 50.4541 223.917 50.4933C223.956 50.5325 223.978 50.5856 223.978 50.641C223.978 50.6964 223.956 50.7496 223.917 50.7888C223.878 50.8279 223.824 50.8499 223.769 50.8499Z" fill="#367CFF"/>
<path d="M223.769 54.6186H221.985C221.929 54.6186 221.876 54.5966 221.837 54.5574C221.797 54.5182 221.775 54.4651 221.775 54.4097C221.775 54.3543 221.797 54.3011 221.837 54.262C221.876 54.2228 221.929 54.2008 221.985 54.2008H223.769C223.824 54.2008 223.878 54.2228 223.917 54.262C223.956 54.3011 223.978 54.3543 223.978 54.4097C223.978 54.4651 223.956 54.5182 223.917 54.5574C223.878 54.5966 223.824 54.6186 223.769 54.6186Z" fill="#367CFF"/>
<path d="M223.769 58.3872H221.985C221.929 58.3872 221.876 58.3652 221.837 58.326C221.797 58.2868 221.775 58.2337 221.775 58.1783C221.775 58.1229 221.797 58.0698 221.837 58.0306C221.876 57.9914 221.929 57.9694 221.985 57.9694H223.769C223.824 57.9694 223.878 57.9914 223.917 58.0306C223.956 58.0698 223.978 58.1229 223.978 58.1783C223.978 58.2337 223.956 58.2868 223.917 58.326C223.878 58.3652 223.824 58.3872 223.769 58.3872Z" fill="#367CFF"/>
<path d="M223.769 62.1558H221.985C221.929 62.1558 221.876 62.1338 221.837 62.0947C221.797 62.0555 221.775 62.0023 221.775 61.9469C221.775 61.8915 221.797 61.8384 221.837 61.7992C221.876 61.76 221.929 61.738 221.985 61.738H223.769C223.824 61.738 223.878 61.76 223.917 61.7992C223.956 61.8384 223.978 61.8915 223.978 61.9469C223.978 62.0023 223.956 62.0555 223.917 62.0947C223.878 62.1338 223.824 62.1558 223.769 62.1558Z" fill="#367CFF"/>
<path d="M223.769 65.9245H221.985C221.929 65.9245 221.876 65.9025 221.837 65.8633C221.797 65.8241 221.775 65.771 221.775 65.7156C221.775 65.6602 221.797 65.6071 221.837 65.5679C221.876 65.5287 221.929 65.5067 221.985 65.5067H223.769C223.824 65.5067 223.878 65.5287 223.917 65.5679C223.956 65.6071 223.978 65.6602 223.978 65.7156C223.978 65.771 223.956 65.8241 223.917 65.8633C223.878 65.9025 223.824 65.9245 223.769 65.9245Z" fill="#367CFF"/>
<path d="M223.769 69.6931H221.985C221.929 69.6931 221.876 69.6711 221.837 69.6319C221.797 69.5928 221.775 69.5396 221.775 69.4842C221.775 69.4288 221.797 69.3757 221.837 69.3365C221.876 69.2973 221.929 69.2753 221.985 69.2753H223.769C223.824 69.2753 223.878 69.2973 223.917 69.3365C223.956 69.3757 223.978 69.4288 223.978 69.4842C223.978 69.5396 223.956 69.5928 223.917 69.6319C223.878 69.6711 223.824 69.6931 223.769 69.6931Z" fill="#367CFF"/>
<path d="M223.769 73.4618H221.985C221.929 73.4618 221.876 73.4398 221.837 73.4006C221.797 73.3614 221.775 73.3083 221.775 73.2529C221.775 73.1975 221.797 73.1443 221.837 73.1052C221.876 73.066 221.929 73.044 221.985 73.044H223.769C223.824 73.044 223.878 73.066 223.917 73.1052C223.956 73.1443 223.978 73.1975 223.978 73.2529C223.978 73.3083 223.956 73.3614 223.917 73.4006C223.878 73.4398 223.824 73.4618 223.769 73.4618Z" fill="#367CFF"/>
<path d="M223.769 77.2304H221.985C221.929 77.2304 221.876 77.2084 221.837 77.1692C221.797 77.1301 221.775 77.0769 221.775 77.0215C221.775 76.9661 221.797 76.913 221.837 76.8738C221.876 76.8346 221.929 76.8126 221.985 76.8126H223.769C223.824 76.8126 223.878 76.8346 223.917 76.8738C223.956 76.913 223.978 76.9661 223.978 77.0215C223.978 77.0769 223.956 77.1301 223.917 77.1692C223.878 77.2084 223.824 77.2304 223.769 77.2304Z" fill="#367CFF"/>
<path d="M223.769 80.9991H221.985C221.929 80.9991 221.876 80.9771 221.837 80.9379C221.797 80.8987 221.775 80.8456 221.775 80.7902C221.775 80.7348 221.797 80.6816 221.837 80.6425C221.876 80.6033 221.929 80.5813 221.985 80.5813H223.769C223.824 80.5813 223.878 80.6033 223.917 80.6425C223.956 80.6816 223.978 80.7348 223.978 80.7902C223.978 80.8456 223.956 80.8987 223.917 80.9379C223.878 80.9771 223.824 80.9991 223.769 80.9991Z" fill="#367CFF"/>
<path d="M223.769 84.7677H221.985C221.929 84.7677 221.876 84.7457 221.837 84.7065C221.797 84.6674 221.775 84.6142 221.775 84.5588C221.775 84.5034 221.797 84.4503 221.837 84.4111C221.876 84.3719 221.929 84.3499 221.985 84.3499H223.769C223.824 84.3499 223.878 84.3719 223.917 84.4111C223.956 84.4503 223.978 84.5034 223.978 84.5588C223.978 84.6142 223.956 84.6674 223.917 84.7065C223.878 84.7457 223.824 84.7677 223.769 84.7677Z" fill="#367CFF"/>
<path d="M223.769 88.5363H221.985C221.929 88.5363 221.876 88.5143 221.837 88.4752C221.797 88.436 221.775 88.3828 221.775 88.3274C221.775 88.272 221.797 88.2189 221.837 88.1797C221.876 88.1405 221.929 88.1185 221.985 88.1185H223.769C223.824 88.1185 223.878 88.1405 223.917 88.1797C223.956 88.2189 223.978 88.272 223.978 88.3274C223.978 88.3828 223.956 88.436 223.917 88.4752C223.878 88.5143 223.824 88.5363 223.769 88.5363Z" fill="#367CFF"/>
<path d="M223.769 92.3054H221.985C221.929 92.3054 221.876 92.2834 221.837 92.2442C221.797 92.205 221.775 92.1519 221.775 92.0965C221.775 92.0411 221.797 91.988 221.837 91.9488C221.876 91.9096 221.929 91.8876 221.985 91.8876H223.769C223.824 91.8876 223.878 91.9096 223.917 91.9488C223.956 91.988 223.978 92.0411 223.978 92.0965C223.978 92.1519 223.956 92.205 223.917 92.2442C223.878 92.2834 223.824 92.3054 223.769 92.3054Z" fill="#367CFF"/>
<path d="M235.653 47.0813H231.357C231.301 47.0813 231.248 47.0593 231.209 47.0201C231.169 46.9809 231.147 46.9278 231.147 46.8724C231.147 46.817 231.169 46.7638 231.209 46.7247C231.248 46.6855 231.301 46.6635 231.357 46.6635H235.653C235.709 46.6635 235.762 46.6855 235.801 46.7247C235.841 46.7638 235.863 46.817 235.863 46.8724C235.863 46.9278 235.841 46.9809 235.801 47.0201C235.762 47.0593 235.709 47.0813 235.653 47.0813V47.0813Z" fill="white"/>
<path d="M231.885 69.6931H227.169C227.114 69.6931 227.061 69.6711 227.021 69.6319C226.982 69.5928 226.96 69.5396 226.96 69.4842C226.96 69.4288 226.982 69.3757 227.021 69.3365C227.061 69.2973 227.114 69.2753 227.169 69.2753H231.885C231.94 69.2753 231.994 69.2973 232.033 69.3365C232.072 69.3757 232.094 69.4288 232.094 69.4842C232.094 69.5396 232.072 69.5928 232.033 69.6319C231.994 69.6711 231.94 69.6931 231.885 69.6931V69.6931Z" fill="white"/>
<path d="M235.653 73.4618H231.357C231.301 73.4618 231.248 73.4398 231.209 73.4006C231.169 73.3614 231.147 73.3083 231.147 73.2529C231.147 73.1975 231.169 73.1443 231.209 73.1052C231.248 73.066 231.301 73.044 231.357 73.044H235.653C235.709 73.044 235.762 73.066 235.801 73.1052C235.841 73.1443 235.863 73.1975 235.863 73.2529C235.863 73.3083 235.841 73.3614 235.801 73.4006C235.762 73.4398 235.709 73.4618 235.653 73.4618V73.4618Z" fill="white"/>
<path d="M259.94 50.8499H234.288C234.232 50.8499 234.179 50.8279 234.14 50.7888C234.101 50.7496 234.079 50.6964 234.079 50.641C234.079 50.5856 234.101 50.5325 234.14 50.4933C234.179 50.4541 234.232 50.4321 234.288 50.4321H259.94C259.996 50.4321 260.049 50.4541 260.088 50.4933C260.127 50.5325 260.149 50.5856 260.149 50.641C260.149 50.6964 260.127 50.7496 260.088 50.7888C260.049 50.8279 259.996 50.8499 259.94 50.8499V50.8499Z" fill="white"/>
<path d="M282.588 50.8499H264.474C264.418 50.8499 264.365 50.8279 264.326 50.7888C264.286 50.7496 264.264 50.6964 264.264 50.641C264.264 50.5856 264.286 50.5325 264.326 50.4933C264.365 50.4541 264.418 50.4321 264.474 50.4321H282.588C282.644 50.4321 282.697 50.4541 282.736 50.4933C282.776 50.5325 282.798 50.5856 282.798 50.641C282.798 50.6964 282.776 50.7496 282.736 50.7888C282.697 50.8279 282.644 50.8499 282.588 50.8499Z" fill="#0CBC8B"/>
<path d="M292.31 50.8499H286.757C286.702 50.8499 286.648 50.8279 286.609 50.7888C286.57 50.7496 286.548 50.6964 286.548 50.641C286.548 50.5856 286.57 50.5325 286.609 50.4933C286.648 50.4541 286.702 50.4321 286.757 50.4321H292.31C292.365 50.4321 292.418 50.4541 292.458 50.4933C292.497 50.5325 292.519 50.5856 292.519 50.641C292.519 50.6964 292.497 50.7496 292.458 50.7888C292.418 50.8279 292.365 50.8499 292.31 50.8499Z" fill="white"/>
<path d="M272.502 58.3872H234.288C234.232 58.3872 234.179 58.3652 234.14 58.326C234.101 58.2868 234.079 58.2337 234.079 58.1783C234.079 58.1229 234.101 58.0698 234.14 58.0306C234.179 57.9914 234.232 57.9694 234.288 57.9694H272.502C272.558 57.9694 272.611 57.9914 272.65 58.0306C272.689 58.0698 272.712 58.1229 272.712 58.1783C272.712 58.2337 272.689 58.2868 272.65 58.326C272.611 58.3652 272.558 58.3872 272.502 58.3872V58.3872Z" fill="white"/>
<path d="M282.588 58.3872H277.036C276.98 58.3872 276.927 58.3652 276.888 58.326C276.849 58.2868 276.826 58.2337 276.826 58.1783C276.826 58.1229 276.849 58.0698 276.888 58.0306C276.927 57.9914 276.98 57.9694 277.036 57.9694H282.588C282.644 57.9694 282.697 57.9914 282.736 58.0306C282.776 58.0698 282.798 58.1229 282.798 58.1783C282.798 58.2337 282.776 58.2868 282.736 58.326C282.697 58.3652 282.644 58.3872 282.588 58.3872Z" fill="#367CFF"/>
<path d="M239.003 54.6186H234.288C234.232 54.6186 234.179 54.5965 234.14 54.5574C234.101 54.5182 234.079 54.4651 234.079 54.4096C234.079 54.3542 234.101 54.3011 234.14 54.2619C234.179 54.2228 234.232 54.2007 234.288 54.2007H239.003C239.059 54.2007 239.112 54.2228 239.151 54.2619C239.191 54.3011 239.213 54.3542 239.213 54.4096C239.213 54.4651 239.191 54.5182 239.151 54.5574C239.112 54.5965 239.059 54.6186 239.003 54.6186V54.6186Z" fill="#0CBC8B"/>
<path d="M270.026 54.6186H243.537C243.481 54.6186 243.428 54.5965 243.389 54.5574C243.35 54.5182 243.328 54.4651 243.328 54.4096C243.328 54.3542 243.35 54.3011 243.389 54.2619C243.428 54.2228 243.481 54.2007 243.537 54.2007H270.026C270.082 54.2007 270.135 54.2228 270.174 54.2619C270.214 54.3011 270.236 54.3542 270.236 54.4096C270.236 54.4651 270.214 54.5182 270.174 54.5574C270.135 54.5965 270.082 54.6186 270.026 54.6186Z" fill="#367CFF"/>
<path d="M292.346 54.6186H275.068C275.012 54.6186 274.959 54.5965 274.92 54.5574C274.88 54.5182 274.858 54.4651 274.858 54.4096C274.858 54.3542 274.88 54.3011 274.92 54.2619C274.959 54.2228 275.012 54.2007 275.068 54.2007H292.345C292.401 54.2007 292.454 54.2228 292.493 54.2619C292.533 54.3011 292.555 54.3542 292.555 54.4096C292.555 54.4651 292.533 54.5182 292.493 54.5574C292.454 54.5965 292.401 54.6186 292.345 54.6186H292.346Z" fill="white"/>
<path d="M259.94 62.1558H234.288C234.232 62.1558 234.179 62.1338 234.14 62.0947C234.101 62.0555 234.079 62.0023 234.079 61.9469C234.079 61.8915 234.101 61.8384 234.14 61.7992C234.179 61.76 234.232 61.738 234.288 61.738H259.94C259.996 61.738 260.049 61.76 260.088 61.7992C260.127 61.8384 260.149 61.8915 260.149 61.9469C260.149 62.0023 260.127 62.0555 260.088 62.0947C260.049 62.1338 259.996 62.1558 259.94 62.1558V62.1558Z" fill="white"/>
<path d="M274.214 62.1558H264.474C264.418 62.1558 264.365 62.1338 264.326 62.0947C264.286 62.0555 264.264 62.0023 264.264 61.9469C264.264 61.8915 264.286 61.8384 264.326 61.7992C264.365 61.76 264.418 61.738 264.474 61.738H274.214C274.269 61.738 274.322 61.76 274.362 61.7992C274.401 61.8384 274.423 61.8915 274.423 61.9469C274.423 62.0023 274.401 62.0555 274.362 62.0947C274.322 62.1338 274.269 62.1558 274.214 62.1558Z" fill="#0CBC8B"/>
<path d="M292.31 62.1558H278.382C278.327 62.1558 278.274 62.1338 278.234 62.0947C278.195 62.0555 278.173 62.0023 278.173 61.9469C278.173 61.8915 278.195 61.8384 278.234 61.7992C278.274 61.76 278.327 61.738 278.382 61.738H292.31C292.365 61.738 292.418 61.76 292.458 61.7992C292.497 61.8384 292.519 61.8915 292.519 61.9469C292.519 62.0023 292.497 62.0555 292.458 62.0947C292.418 62.1338 292.365 62.1558 292.31 62.1558Z" fill="white"/>
<path d="M239.003 65.9245H234.288C234.232 65.9245 234.179 65.9025 234.14 65.8633C234.101 65.8241 234.079 65.771 234.079 65.7156C234.079 65.6602 234.101 65.6071 234.14 65.5679C234.179 65.5287 234.232 65.5067 234.288 65.5067H239.003C239.059 65.5067 239.112 65.5287 239.151 65.5679C239.191 65.6071 239.213 65.6602 239.213 65.7156C239.213 65.771 239.191 65.8241 239.151 65.8633C239.112 65.9025 239.059 65.9245 239.003 65.9245V65.9245Z" fill="#367CFF"/>
<path d="M270.026 65.9245H243.537C243.481 65.9245 243.428 65.9025 243.389 65.8633C243.35 65.8241 243.328 65.771 243.328 65.7156C243.328 65.6602 243.35 65.6071 243.389 65.5679C243.428 65.5287 243.481 65.5067 243.537 65.5067H270.026C270.082 65.5067 270.135 65.5287 270.174 65.5679C270.214 65.6071 270.236 65.6602 270.236 65.7156C270.236 65.771 270.214 65.8241 270.174 65.8633C270.135 65.9025 270.082 65.9245 270.026 65.9245Z" fill="#0CBC8B"/>
<path d="M259.103 80.9991H233.45C233.395 80.9991 233.342 80.9771 233.302 80.9379C233.263 80.8987 233.241 80.8456 233.241 80.7902C233.241 80.7348 233.263 80.6816 233.302 80.6425C233.342 80.6033 233.395 80.5813 233.45 80.5813H259.103C259.158 80.5813 259.211 80.6033 259.251 80.6425C259.29 80.6816 259.312 80.7348 259.312 80.7902C259.312 80.8456 259.29 80.8987 259.251 80.9379C259.211 80.9771 259.158 80.9991 259.103 80.9991V80.9991Z" fill="white"/>
<path d="M281.751 80.9991H263.636C263.581 80.9991 263.528 80.9771 263.488 80.9379C263.449 80.8987 263.427 80.8456 263.427 80.7902C263.427 80.7348 263.449 80.6816 263.488 80.6425C263.528 80.6033 263.581 80.5813 263.636 80.5813H281.751C281.806 80.5813 281.86 80.6033 281.899 80.6425C281.938 80.6816 281.96 80.7348 281.96 80.7902C281.96 80.8456 281.938 80.8987 281.899 80.9379C281.86 80.9771 281.806 80.9991 281.751 80.9991Z" fill="#367CFF"/>
<path d="M246.541 77.2304H233.45C233.395 77.2304 233.342 77.2084 233.302 77.1692C233.263 77.1301 233.241 77.0769 233.241 77.0215C233.241 76.9661 233.263 76.913 233.302 76.8738C233.342 76.8346 233.395 76.8126 233.45 76.8126H246.541C246.596 76.8126 246.649 76.8346 246.689 76.8738C246.728 76.913 246.75 76.9661 246.75 77.0215C246.75 77.0769 246.728 77.1301 246.689 77.1692C246.649 77.2084 246.596 77.2304 246.541 77.2304V77.2304Z" fill="#0CBC8B"/>
<path d="M269.189 77.2304H251.074C251.019 77.2304 250.965 77.2084 250.926 77.1692C250.887 77.1301 250.865 77.0769 250.865 77.0215C250.865 76.9661 250.887 76.913 250.926 76.8738C250.965 76.8346 251.019 76.8126 251.074 76.8126H269.189C269.244 76.8126 269.298 76.8346 269.337 76.8738C269.376 76.913 269.398 76.9661 269.398 77.0215C269.398 77.0769 269.376 77.1301 269.337 77.1692C269.298 77.2084 269.244 77.2304 269.189 77.2304Z" fill="#367CFF"/>
<path d="M291.509 77.2304H274.23C274.175 77.2304 274.122 77.2084 274.082 77.1692C274.043 77.1301 274.021 77.0769 274.021 77.0215C274.021 76.9661 274.043 76.913 274.082 76.8738C274.122 76.8346 274.175 76.8126 274.23 76.8126H291.508C291.563 76.8126 291.617 76.8346 291.656 76.8738C291.695 76.913 291.717 76.9661 291.717 77.0215C291.717 77.0769 291.695 77.1301 291.656 77.1692C291.617 77.2084 291.563 77.2304 291.508 77.2304H291.509Z" fill="white"/>
<path d="M271.665 88.5368H233.45C233.395 88.5368 233.342 88.5148 233.302 88.4756C233.263 88.4364 233.241 88.3833 233.241 88.3279C233.241 88.2725 233.263 88.2193 233.302 88.1801C233.342 88.141 233.395 88.119 233.45 88.119H271.665C271.72 88.119 271.773 88.141 271.813 88.1801C271.852 88.2193 271.874 88.2725 271.874 88.3279C271.874 88.3833 271.852 88.4364 271.813 88.4756C271.773 88.5148 271.72 88.5368 271.665 88.5368V88.5368Z" fill="#367CFF"/>
<path d="M281.751 88.5368H276.198C276.143 88.5368 276.09 88.5148 276.05 88.4756C276.011 88.4364 275.989 88.3833 275.989 88.3279C275.989 88.2725 276.011 88.2193 276.05 88.1801C276.09 88.141 276.143 88.119 276.198 88.119H281.751C281.806 88.119 281.86 88.141 281.899 88.1801C281.938 88.2193 281.96 88.2725 281.96 88.3279C281.96 88.3833 281.938 88.4364 281.899 88.4756C281.86 88.5148 281.806 88.5368 281.751 88.5368Z" fill="white"/>
<path d="M238.166 84.7681H233.45C233.395 84.7681 233.342 84.7461 233.302 84.7069C233.263 84.6678 233.241 84.6146 233.241 84.5592C233.241 84.5038 233.263 84.4507 233.302 84.4115C233.342 84.3723 233.395 84.3503 233.45 84.3503H238.166C238.221 84.3503 238.275 84.3723 238.314 84.4115C238.353 84.4507 238.375 84.5038 238.375 84.5592C238.375 84.6146 238.353 84.6678 238.314 84.7069C238.275 84.7461 238.221 84.7681 238.166 84.7681V84.7681Z" fill="#367CFF"/>
<path d="M269.189 84.7681H242.699C242.644 84.7681 242.591 84.7461 242.551 84.7069C242.512 84.6678 242.49 84.6146 242.49 84.5592C242.49 84.5038 242.512 84.4507 242.551 84.4115C242.591 84.3723 242.644 84.3503 242.699 84.3503H269.189C269.244 84.3503 269.298 84.3723 269.337 84.4115C269.376 84.4507 269.398 84.5038 269.398 84.5592C269.398 84.6146 269.376 84.6678 269.337 84.7069C269.298 84.7461 269.244 84.7681 269.189 84.7681Z" fill="white"/>
<path d="M291.509 84.7681H274.23C274.175 84.7681 274.122 84.7461 274.082 84.7069C274.043 84.6678 274.021 84.6146 274.021 84.5592C274.021 84.5038 274.043 84.4507 274.082 84.4115C274.122 84.3723 274.175 84.3503 274.23 84.3503H291.508C291.563 84.3503 291.617 84.3723 291.656 84.4115C291.695 84.4507 291.717 84.5038 291.717 84.5592C291.717 84.6146 291.695 84.6678 291.656 84.7069C291.617 84.7461 291.563 84.7681 291.508 84.7681H291.509Z" fill="#0CBC8B"/>
<path d="M259.103 92.3054H233.45C233.395 92.3054 233.342 92.2834 233.302 92.2442C233.263 92.205 233.241 92.1519 233.241 92.0965C233.241 92.0411 233.263 91.988 233.302 91.9488C233.342 91.9096 233.395 91.8876 233.45 91.8876H259.103C259.158 91.8876 259.211 91.9096 259.251 91.9488C259.29 91.988 259.312 92.0411 259.312 92.0965C259.312 92.1519 259.29 92.205 259.251 92.2442C259.211 92.2834 259.158 92.3054 259.103 92.3054V92.3054Z" fill="#0CBC8B"/>
<path d="M273.376 92.3054H263.636C263.581 92.3054 263.528 92.2834 263.488 92.2442C263.449 92.205 263.427 92.1519 263.427 92.0965C263.427 92.0411 263.449 91.988 263.488 91.9488C263.528 91.9096 263.581 91.8876 263.636 91.8876H273.376C273.432 91.8876 273.485 91.9096 273.524 91.9488C273.563 91.988 273.585 92.0411 273.585 92.0965C273.585 92.1519 273.563 92.205 273.524 92.2442C273.485 92.2834 273.432 92.3054 273.376 92.3054Z" fill="white"/>
<path d="M291.472 92.3054H277.545C277.49 92.3054 277.436 92.2834 277.397 92.2442C277.358 92.205 277.336 92.1519 277.336 92.0965C277.336 92.0411 277.358 91.988 277.397 91.9488C277.436 91.9096 277.49 91.8876 277.545 91.8876H291.472C291.528 91.8876 291.581 91.9096 291.62 91.9488C291.66 91.988 291.682 92.0411 291.682 92.0965C291.682 92.1519 291.66 92.205 291.62 92.2442C291.581 92.2834 291.528 92.3054 291.472 92.3054Z" fill="#367CFF"/>
<path d="M219.996 96.3381C219.94 96.3381 219.887 96.3161 219.848 96.2769C219.809 96.2377 219.787 96.1846 219.787 96.1292V36.7338C219.787 36.6784 219.809 36.6253 219.848 36.5861C219.887 36.5469 219.94 36.5249 219.996 36.5249C220.052 36.5249 220.105 36.5469 220.144 36.5861C220.183 36.6253 220.205 36.6784 220.205 36.7338V96.1292C220.205 96.1846 220.183 96.2377 220.144 96.2769C220.105 96.3161 220.052 96.3381 219.996 96.3381Z" fill="white"/>
<path d="M290.116 32.7634C291.971 32.7634 293.475 31.2628 293.475 29.4117C293.475 27.5606 291.971 26.06 290.116 26.06C288.261 26.06 286.757 27.5606 286.757 29.4117C286.757 31.2628 288.261 32.7634 290.116 32.7634Z" fill="white"/>
<path d="M210.42 39.3434H201.353C201.298 39.3434 201.245 39.3214 201.205 39.2823C201.166 39.2431 201.144 39.1899 201.144 39.1345C201.144 39.0791 201.166 39.026 201.205 38.9868C201.245 38.9476 201.298 38.9256 201.353 38.9256H210.42C210.475 38.9256 210.529 38.9476 210.568 38.9868C210.607 39.026 210.629 39.0791 210.629 39.1345C210.629 39.1899 210.607 39.2431 210.568 39.2823C210.529 39.3214 210.475 39.3434 210.42 39.3434Z" fill="white"/>
<path d="M207.689 43.4639H201.353C201.298 43.4639 201.245 43.4419 201.205 43.4027C201.166 43.3635 201.144 43.3104 201.144 43.255C201.144 43.1996 201.166 43.1464 201.205 43.1073C201.245 43.0681 201.298 43.0461 201.353 43.0461H207.689C207.744 43.0461 207.797 43.0681 207.837 43.1073C207.876 43.1464 207.898 43.1996 207.898 43.255C207.898 43.3104 207.876 43.3635 207.837 43.4027C207.797 43.4419 207.744 43.4639 207.689 43.4639V43.4639Z" fill="white"/>
<path d="M213.26 47.5843H201.353C201.298 47.5843 201.245 47.5623 201.205 47.5231C201.166 47.4839 201.144 47.4308 201.144 47.3754C201.144 47.32 201.166 47.2669 201.205 47.2277C201.245 47.1885 201.298 47.1665 201.353 47.1665H213.26C213.315 47.1665 213.369 47.1885 213.408 47.2277C213.447 47.2669 213.469 47.32 213.469 47.3754C213.469 47.4308 213.447 47.4839 213.408 47.5231C213.369 47.5623 213.315 47.5843 213.26 47.5843V47.5843Z" fill="white"/>
<path d="M215.482 51.7048H205.541C205.485 51.7048 205.432 51.6828 205.393 51.6436C205.354 51.6044 205.331 51.5513 205.331 51.4959C205.331 51.4405 205.354 51.3873 205.393 51.3481C205.432 51.309 205.485 51.287 205.541 51.287H215.482C215.537 51.287 215.59 51.309 215.63 51.3481C215.669 51.3873 215.691 51.4405 215.691 51.4959C215.691 51.5513 215.669 51.6044 215.63 51.6436C215.59 51.6828 215.537 51.7048 215.482 51.7048Z" fill="white"/>
<path d="M210.675 55.8256H205.541C205.485 55.8256 205.432 55.8036 205.393 55.7644C205.354 55.7252 205.331 55.6721 205.331 55.6167C205.331 55.5613 205.354 55.5082 205.393 55.469C205.432 55.4298 205.485 55.4078 205.541 55.4078H210.675C210.73 55.4078 210.783 55.4298 210.823 55.469C210.862 55.5082 210.884 55.5613 210.884 55.6167C210.884 55.6721 210.862 55.7252 210.823 55.7644C210.783 55.8036 210.73 55.8256 210.675 55.8256Z" fill="white"/>
<path d="M214.607 59.946H205.541C205.485 59.946 205.432 59.924 205.393 59.8848C205.354 59.8457 205.331 59.7925 205.331 59.7371C205.331 59.6817 205.354 59.6286 205.393 59.5894C205.432 59.5502 205.485 59.5282 205.541 59.5282H214.607C214.663 59.5282 214.716 59.5502 214.755 59.5894C214.795 59.6286 214.817 59.6817 214.817 59.7371C214.817 59.7925 214.795 59.8457 214.755 59.8848C214.716 59.924 214.663 59.946 214.607 59.946V59.946Z" fill="white"/>
<path d="M208.344 64.0665H201.353C201.298 64.0665 201.245 64.0445 201.205 64.0053C201.166 63.9661 201.144 63.913 201.144 63.8576C201.144 63.8022 201.166 63.749 201.205 63.7099C201.245 63.6707 201.298 63.6487 201.353 63.6487H208.344C208.4 63.6487 208.453 63.6707 208.492 63.7099C208.532 63.749 208.554 63.8022 208.554 63.8576C208.554 63.913 208.532 63.9661 208.492 64.0053C208.453 64.0445 208.4 64.0665 208.344 64.0665Z" fill="white"/>
<path d="M205.941 68.1865H201.353C201.298 68.1865 201.245 68.1645 201.205 68.1253C201.166 68.0862 201.144 68.033 201.144 67.9776C201.144 67.9222 201.166 67.8691 201.205 67.8299C201.245 67.7907 201.298 67.7687 201.353 67.7687H205.941C205.997 67.7687 206.05 67.7907 206.089 67.8299C206.128 67.8691 206.151 67.9222 206.151 67.9776C206.151 68.033 206.128 68.0862 206.089 68.1253C206.05 68.1645 205.997 68.1865 205.941 68.1865V68.1865Z" fill="white"/>
<path d="M223.484 38.4594V38.5346L226.101 39.5039C226.139 39.5191 226.171 39.5451 226.193 39.5787C226.215 39.6122 226.227 39.6516 226.227 39.6919V39.7629C226.227 39.7943 226.22 39.8253 226.206 39.8531C226.191 39.8809 226.169 39.9045 226.143 39.9217C226.117 39.9404 226.086 39.9521 226.053 39.9557C226.021 39.9594 225.988 39.9549 225.958 39.9426L223.003 38.7894C222.966 38.7747 222.934 38.7494 222.912 38.7166C222.889 38.6839 222.877 38.6452 222.877 38.6056V38.3925C222.877 38.3528 222.888 38.3138 222.911 38.281C222.933 38.2481 222.965 38.2229 223.003 38.2087L225.958 37.0514C225.983 37.0431 226.008 37.0389 226.034 37.0388C226.073 37.0396 226.11 37.0512 226.143 37.0722C226.169 37.0903 226.191 37.1147 226.206 37.1431C226.22 37.1716 226.228 37.2032 226.227 37.2352V37.3062C226.228 37.3461 226.216 37.3853 226.194 37.4182C226.171 37.4512 226.139 37.4763 226.101 37.4901L223.484 38.4594Z" fill="#367CFF"/>
<path d="M228.672 36.199L227.106 40.9829C227.093 41.0229 227.068 41.0577 227.034 41.0825C227 41.1073 226.959 41.1207 226.917 41.1208C226.887 41.1213 226.857 41.1143 226.83 41.1004C226.803 41.0866 226.78 41.0663 226.762 41.0414C226.744 41.0167 226.731 40.988 226.725 40.9576C226.719 40.9271 226.721 40.8958 226.729 40.866L228.295 36.0862C228.308 36.0455 228.334 36.01 228.369 35.9845C228.403 35.9591 228.445 35.945 228.488 35.9442C228.518 35.944 228.548 35.9512 228.575 35.965C228.602 35.9788 228.625 35.9989 228.643 36.0235C228.661 36.0482 228.674 36.0771 228.679 36.1077C228.684 36.1382 228.682 36.1696 228.672 36.199V36.199Z" fill="#367CFF"/>
<path d="M232.517 38.3925V38.6056C232.518 38.6449 232.507 38.6834 232.485 38.7162C232.463 38.749 232.432 38.7745 232.396 38.7894L229.436 39.9426C229.406 39.9547 229.374 39.9592 229.343 39.9555C229.311 39.9519 229.281 39.9402 229.256 39.9217C229.229 39.9047 229.207 39.8812 229.191 39.8535C229.176 39.8258 229.168 39.7946 229.168 39.7629V39.6919C229.167 39.651 229.18 39.6111 229.203 39.5774C229.226 39.5438 229.259 39.5181 229.297 39.5039L231.914 38.5346V38.4594L229.297 37.49C229.259 37.4773 229.226 37.4525 229.202 37.4194C229.179 37.3864 229.167 37.3467 229.168 37.3062V37.2352C229.168 37.2029 229.176 37.1712 229.191 37.1427C229.206 37.1143 229.229 37.0901 229.256 37.0722C229.288 37.0513 229.326 37.0397 229.364 37.0388C229.389 37.0385 229.413 37.0428 229.436 37.0513L232.396 38.2087C232.433 38.2232 232.464 38.2486 232.486 38.2815C232.508 38.3144 232.519 38.3531 232.517 38.3925Z" fill="#367CFF"/>
<path d="M173.315 0H25.8256V147.163H173.315V0Z" fill="#F4F4F4"/>
<path d="M25.8256 0H24.1351V147.163H25.8256V0Z" fill="#F4F4F4"/>
<path opacity="0.05" d="M25.8256 0H24.1351V147.163H25.8256V0Z" fill="white"/>
<path opacity="0.05" d="M61.5555 101.407V62.9046H93.165V85.2741H142.128V124.881H162.938V147.163H142.128H138.119H32.9206V101.407H61.5555Z" fill="white"/>
<path opacity="0.34" d="M89.1075 67.0852H66.0891V71.2658H89.1075V67.0852Z" fill="#FFFFFA"/>
<path opacity="0.34" d="M89.1075 75.748H66.0891V79.9286H89.1075V75.748Z" fill="#FFFFFA"/>
<path opacity="0.34" d="M89.1075 84.4109H66.0891V88.5915H89.1075V84.4109Z" fill="#FFFFFA"/>
<path opacity="0.34" d="M41.2447 105.465H37.002V109.646H41.2447V105.465Z" fill="#FFFFFA"/>
<path opacity="0.34" d="M41.2447 114.128H37.002V118.309H41.2447V114.128Z" fill="#FFFFFA"/>
<path opacity="0.34" d="M41.2447 122.791H37.002V126.972H41.2447V122.791Z" fill="#FFFFFA"/>
<path opacity="0.34" d="M49.0935 105.465H44.8508V109.646H49.0935V105.465Z" fill="#FFFFFA"/>
<path opacity="0.34" d="M49.0935 114.128H44.8508V118.309H49.0935V114.128Z" fill="#FFFFFA"/>
<path opacity="0.34" d="M49.0935 122.791H44.8508V126.972H49.0935V122.791Z" fill="#FFFFFA"/>
<path opacity="0.34" d="M56.7304 105.465H52.4877V109.646H56.7304V105.465Z" fill="#FFFFFA"/>
<path opacity="0.34" d="M56.7304 114.128H52.4877V118.309H56.7304V114.128Z" fill="#FFFFFA"/>
<path opacity="0.34" d="M56.7304 122.791H52.4877V126.972H56.7304V122.791Z" fill="#FFFFFA"/>
<path d="M25.8256 72.7561H55.5031V0H57.9573V72.7561H138.119V0H140.573V72.7561H173.315V75.2049H140.573V147.163H138.119V75.2049H57.9573V147.163H55.5031V75.2049H25.8256V72.7561Z" fill="white"/>
<path d="M179.191 146.985H19.9503V151.88H179.191V146.985Z" fill="#F4F4F4"/>
<path opacity="0.1" d="M179.191 146.985H19.9503V151.88H179.191V146.985Z" fill="white"/>
<path opacity="0.1" d="M19.9503 146.985H17.651V151.88H19.9503V146.985Z" fill="white"/>
<path opacity="0.1" d="M19.9503 146.985H17.651V151.88H19.9503V146.985Z" fill="white"/>
<path d="M24.1351 6.26547L173.315 6.26547V2.62677L24.1351 2.62677V6.26547Z" fill="white"/>
<path d="M24.1351 13.0624L173.315 13.0624V9.4237L24.1351 9.4237V13.0624Z" fill="white"/>
<path d="M24.1351 19.8589L173.315 19.8589V16.2202L24.1351 16.2202V19.8589Z" fill="white"/>
<path d="M24.1351 26.6554L173.315 26.6554V23.0167L24.1351 23.0167V26.6554Z" fill="white"/>
<path d="M24.1351 33.4515L173.315 33.4515V29.8128L24.1351 29.8128V33.4515Z" fill="white"/>
<path d="M39.9797 37.5557H42.2153L42.2153 1.14441e-05H39.9797L39.9797 37.5557Z" fill="white"/>
<path d="M40.908 42.9492C42.6043 42.9492 43.9794 41.5771 43.9794 39.8845C43.9794 38.192 42.6043 36.8199 40.908 36.8199C39.2117 36.8199 37.8366 38.192 37.8366 39.8845C37.8366 41.5771 39.2117 42.9492 40.908 42.9492Z" fill="white"/>
<path d="M25.4374 351.719L24.615 351.561L37.4685 224.116L38.2909 224.274L25.4374 351.719Z" fill="#494949"/>
<path d="M73.2981 351.719L72.4757 351.561L85.3288 224.116L86.1512 224.274L73.2981 351.719Z" fill="#494949"/>
<path d="M179.091 351.719L179.913 351.561L167.06 224.116L166.237 224.274L179.091 351.719Z" fill="#494949"/>
<path d="M131.23 351.719L132.053 351.561L119.2 224.116L118.377 224.274L131.23 351.719Z" fill="#494949"/>
<path d="M114.185 168.027L113.355 168.138L120.863 224.251L121.694 224.141L114.185 168.027Z" fill="#494949"/>
<path d="M27.9986 168.026L27.1685 168.137L34.6772 224.251L35.5073 224.14L27.9986 168.026Z" fill="#494949"/>
<path d="M121.621 220.086H37.3211C35.0467 220.086 33.2029 221.926 33.2029 224.195V224.195C33.2029 226.465 35.0467 228.305 37.3211 228.305H121.621C123.896 228.305 125.739 226.465 125.739 224.195V224.195C125.739 221.926 123.896 220.086 121.621 220.086Z" fill="white"/>
<path opacity="0.8" d="M121.621 220.086H37.3211C35.0467 220.086 33.2029 221.926 33.2029 224.195V224.195C33.2029 226.465 35.0467 228.305 37.3211 228.305H121.621C123.896 228.305 125.739 226.465 125.739 224.195V224.195C125.739 221.926 123.896 220.086 121.621 220.086Z" fill="white"/>
<path d="M121.621 228.722H37.3215C36.7257 228.722 36.1358 228.605 35.5853 228.377C35.0348 228.15 34.5347 227.816 34.1134 227.396C33.6921 226.976 33.3579 226.477 33.1299 225.927C32.9019 225.378 32.7845 224.789 32.7845 224.195C32.7845 223.6 32.9019 223.012 33.1299 222.463C33.3579 221.913 33.6921 221.414 34.1134 220.994C34.5347 220.574 35.0348 220.24 35.5853 220.013C36.1358 219.785 36.7257 219.668 37.3215 219.668H121.621C122.217 219.668 122.807 219.785 123.357 220.013C123.908 220.24 124.408 220.574 124.829 220.994C125.251 221.414 125.585 221.913 125.813 222.463C126.041 223.012 126.158 223.6 126.158 224.195C126.158 224.789 126.041 225.378 125.813 225.927C125.585 226.477 125.251 226.976 124.829 227.396C124.408 227.816 123.908 228.15 123.357 228.377C122.807 228.605 122.217 228.722 121.621 228.722V228.722ZM37.3215 220.504C36.8357 220.504 36.3546 220.599 35.9058 220.785C35.4569 220.97 35.0491 221.242 34.7056 221.585C34.362 221.928 34.0895 222.334 33.9036 222.782C33.7177 223.23 33.622 223.71 33.622 224.195C33.622 224.68 33.7177 225.16 33.9036 225.608C34.0895 226.055 34.362 226.462 34.7056 226.805C35.0491 227.148 35.4569 227.42 35.9058 227.605C36.3546 227.791 36.8357 227.886 37.3215 227.886H121.621C122.107 227.886 122.588 227.791 123.037 227.605C123.486 227.42 123.894 227.148 124.237 226.805C124.581 226.462 124.853 226.055 125.039 225.608C125.225 225.16 125.321 224.68 125.321 224.195C125.321 223.71 125.225 223.23 125.039 222.782C124.853 222.334 124.581 221.928 124.237 221.585C123.894 221.242 123.486 220.97 123.037 220.785C122.588 220.599 122.107 220.504 121.621 220.504H37.3215Z" fill="white"/>
<path d="M167.89 220.086H83.5898C81.3153 220.086 79.4715 221.926 79.4715 224.195V224.195C79.4715 226.465 81.3153 228.305 83.5898 228.305H167.89C170.164 228.305 172.008 226.465 172.008 224.195V224.195C172.008 221.926 170.164 220.086 167.89 220.086Z" fill="white"/>
<path d="M167.89 228.722H83.5898C82.994 228.722 82.404 228.605 81.8536 228.377C81.3031 228.15 80.8029 227.816 80.3816 227.396C79.9603 226.976 79.6261 226.477 79.3981 225.927C79.1701 225.378 79.0528 224.789 79.0528 224.195C79.0528 223.6 79.1701 223.012 79.3981 222.463C79.6261 221.913 79.9603 221.414 80.3816 220.994C80.8029 220.574 81.3031 220.24 81.8536 220.013C82.404 219.785 82.994 219.668 83.5898 219.668H167.89C168.486 219.668 169.076 219.785 169.626 220.013C170.176 220.24 170.677 220.574 171.098 220.994C171.519 221.414 171.853 221.913 172.081 222.463C172.309 223.012 172.427 223.6 172.427 224.195C172.427 224.789 172.309 225.378 172.081 225.927C171.853 226.477 171.519 226.976 171.098 227.396C170.677 227.816 170.176 228.15 169.626 228.377C169.076 228.605 168.486 228.722 167.89 228.722V228.722ZM83.5898 220.504C83.104 220.504 82.6229 220.599 82.174 220.785C81.7252 220.97 81.3174 221.242 80.9738 221.585C80.6303 221.928 80.3578 222.334 80.1719 222.782C79.9859 223.23 79.8903 223.71 79.8903 224.195C79.8903 224.68 79.9859 225.16 80.1719 225.608C80.3578 226.055 80.6303 226.462 80.9738 226.805C81.3174 227.148 81.7252 227.42 82.174 227.605C82.6229 227.791 83.104 227.886 83.5898 227.886H167.89C168.376 227.886 168.857 227.791 169.306 227.605C169.754 227.42 170.162 227.148 170.506 226.805C170.849 226.462 171.122 226.055 171.308 225.608C171.494 225.16 171.589 224.68 171.589 224.195C171.589 223.71 171.494 223.23 171.308 222.782C171.122 222.334 170.849 221.928 170.506 221.585C170.162 221.242 169.754 220.97 169.306 220.785C168.857 220.599 168.376 220.504 167.89 220.504H83.5898Z" fill="white"/>
<path d="M109.567 168.081H27.8095C26.4728 168.081 25.1818 167.596 24.1774 166.716C23.173 165.836 22.524 164.621 22.3513 163.298L16.9433 121.86C16.8423 121.086 16.908 120.299 17.1361 119.551C17.3642 118.804 17.7494 118.114 18.2661 117.527C18.7828 116.94 19.419 116.47 20.1323 116.148C20.8455 115.826 21.6195 115.659 22.4024 115.659H104.159C105.495 115.659 106.786 116.145 107.791 117.025C108.795 117.905 109.444 119.119 109.617 120.442L115.024 161.88C115.125 162.655 115.06 163.442 114.832 164.189C114.604 164.936 114.219 165.627 113.702 166.213C113.186 166.8 112.549 167.271 111.836 167.593C111.123 167.915 110.349 168.081 109.567 168.081V168.081Z" fill="white"/>
<path opacity="0.8" d="M109.567 168.081H27.8095C26.4728 168.081 25.1818 167.596 24.1774 166.716C23.173 165.836 22.524 164.621 22.3513 163.298L16.9433 121.86C16.8423 121.086 16.908 120.299 17.1361 119.551C17.3642 118.804 17.7494 118.114 18.2661 117.527C18.7828 116.94 19.419 116.47 20.1323 116.148C20.8455 115.826 21.6195 115.659 22.4024 115.659H104.159C105.495 115.659 106.786 116.145 107.791 117.025C108.795 117.905 109.444 119.119 109.617 120.442L115.024 161.88C115.125 162.655 115.06 163.442 114.832 164.189C114.604 164.936 114.219 165.627 113.702 166.213C113.186 166.8 112.549 167.271 111.836 167.593C111.123 167.915 110.349 168.081 109.567 168.081V168.081Z" fill="white"/>
<path d="M109.567 168.499H27.8095C26.372 168.496 24.9844 167.973 23.9043 167.026C22.8241 166.08 22.1248 164.774 21.9359 163.352L16.5284 121.914C16.4195 121.081 16.4901 120.234 16.7355 119.429C16.9808 118.625 17.3954 117.882 17.9513 117.251C18.5073 116.619 19.1919 116.113 19.9595 115.767C20.727 115.42 21.5599 115.241 22.4024 115.241H104.159C105.596 115.244 106.984 115.768 108.064 116.714C109.144 117.661 109.843 118.966 110.032 120.388L115.44 161.826C115.549 162.66 115.478 163.507 115.233 164.311C114.987 165.115 114.573 165.858 114.017 166.489C113.461 167.121 112.776 167.627 112.009 167.973C111.242 168.32 110.409 168.499 109.567 168.499V168.499ZM22.4024 116.077C21.6791 116.077 20.9642 116.231 20.3053 116.528C19.6463 116.826 19.0586 117.26 18.5814 117.803C18.1041 118.345 17.7482 118.982 17.5375 119.673C17.3268 120.363 17.2662 121.09 17.3595 121.806L22.7675 163.244C22.9295 164.465 23.5299 165.586 24.4573 166.399C25.3847 167.212 26.5761 167.661 27.8104 167.664H109.567C110.29 167.663 111.004 167.509 111.663 167.212C112.322 166.914 112.91 166.479 113.387 165.937C113.864 165.395 114.22 164.757 114.43 164.067C114.641 163.377 114.701 162.65 114.608 161.934L109.201 120.496C109.039 119.275 108.439 118.155 107.511 117.342C106.584 116.529 105.393 116.08 104.159 116.077L22.4024 116.077Z" fill="white"/>
<path d="M114.189 168.081H32.4324C31.0957 168.081 29.8047 167.596 28.8004 166.716C27.7961 165.836 27.1471 164.621 26.9746 163.298L21.5649 121.86C21.4639 121.086 21.5295 120.299 21.7576 119.551C21.9857 118.804 22.3708 118.114 22.8874 117.527C23.404 116.94 24.0401 116.47 24.7533 116.148C25.4665 115.826 26.2403 115.659 27.0231 115.659H108.782C110.118 115.659 111.409 116.145 112.414 117.025C113.418 117.905 114.067 119.119 114.24 120.442L119.648 161.88C119.749 162.655 119.683 163.442 119.455 164.189C119.227 164.937 118.842 165.627 118.325 166.214C117.809 166.8 117.172 167.271 116.459 167.593C115.746 167.915 114.972 168.081 114.189 168.081V168.081Z" fill="white"/>
<path d="M114.189 168.499H32.4324C30.9949 168.496 29.6074 167.973 28.5273 167.026C27.4472 166.079 26.7479 164.774 26.5592 163.352L21.1512 121.914C21.0425 121.081 21.1132 120.234 21.3586 119.43C21.604 118.626 22.0185 117.883 22.5744 117.251C23.1303 116.62 23.8148 116.114 24.5822 115.767C25.3497 115.42 26.1824 115.241 27.0248 115.241H108.781C110.219 115.244 111.607 115.768 112.687 116.714C113.767 117.661 114.466 118.966 114.655 120.388L120.063 161.826C120.172 162.66 120.101 163.507 119.855 164.311C119.61 165.115 119.196 165.858 118.64 166.489C118.084 167.121 117.399 167.627 116.632 167.973C115.864 168.32 115.032 168.499 114.189 168.499V168.499ZM27.0248 116.077C26.3017 116.077 25.5869 116.231 24.9282 116.529C24.2695 116.827 23.682 117.261 23.2049 117.803C22.7278 118.346 22.3721 118.983 22.1615 119.674C21.9509 120.364 21.8903 121.091 21.9837 121.807L27.3895 163.244C27.5517 164.465 28.1522 165.586 29.0795 166.399C30.0069 167.211 31.1982 167.661 32.4324 167.664H114.189C114.913 167.664 115.628 167.51 116.286 167.212C116.945 166.914 117.533 166.48 118.01 165.938C118.488 165.395 118.844 164.758 119.054 164.068C119.265 163.377 119.326 162.65 119.232 161.934L113.824 120.496C113.662 119.275 113.062 118.155 112.134 117.342C111.207 116.529 110.016 116.08 108.781 116.077L27.0248 116.077Z" fill="white"/>
<path d="M177.741 177.543L176.908 177.627L194.561 351.999L195.394 351.915L177.741 177.543Z" fill="#494949"/>
<path d="M105.379 52.0436C105.379 52.0436 110.811 47.952 112.158 38.5337C113.2 31.2417 106.458 35.9659 106.458 35.9659C106.458 35.9659 107.158 30.7078 103.318 31.2296C99.4779 31.7514 97.3298 37.2749 97.3298 37.2749" fill="#0C0C0C"/>
<path d="M83.4742 31.845C83.4742 31.845 64.4238 33.8844 71.3108 59.6398L72.9966 59.7526L76.4185 59.9816" fill="#0C0C0C"/>
<path d="M102.188 86.5392C102.104 86.5284 101.175 101.915 83.2586 100.575C70.8556 99.6476 66.4333 86.5175 66.149 86.5175C67.4865 86.2342 69.1388 85.8034 69.7958 85.656C71.2271 85.3244 72.5234 84.5659 73.5121 83.4813C74.5008 82.3967 75.1351 81.0375 75.3306 79.5844C75.6937 77.4034 75.0794 66.2445 75.2674 64.0377L94.3061 68.2776C94.0402 72.9387 92.1781 83.7436 98.7028 85.656C99.7903 85.9722 100.96 86.263 102.188 86.5392Z" fill="#E98862"/>
<path opacity="0.52" d="M94.5737 81.2401C94.2755 80.2811 94.0834 79.2924 94.0008 78.2916C93.7919 76.0081 93.834 73.7086 94.1265 71.4341C90.2568 70.9131 86.6113 69.3195 83.604 66.8345C83.2506 68.1372 81.3064 73.8294 81.8453 75.0674C82.8608 77.408 87.6415 81.2401 94.5737 81.2401Z" fill="#0C0C0C"/>
<path d="M90.6442 78.1947C83.1329 77.5225 74.1431 72.7874 74.0137 62.6142L73.8965 53.4349C73.7671 43.2621 79.0168 34.9473 88.6167 34.8253C98.2162 34.7037 105.497 42.8593 105.626 53.0326L105.678 57.0962C105.671 58.4918 105.569 59.8854 105.373 61.2672C104.88 64.923 104.117 70.4811 101.631 74.241C99.2823 77.7907 95.4425 78.6238 90.6442 78.1947Z" fill="#E98862"/>
<path d="M94.129 68.8968C95.6789 68.9669 97.2238 68.6725 98.6387 68.0374C98.668 68.0249 98.6945 68.0068 98.7168 67.9841C98.739 67.9615 98.7566 67.9346 98.7684 67.9052C98.7803 67.8757 98.7862 67.8443 98.7859 67.8125C98.7855 67.7808 98.7789 67.7494 98.7665 67.7202C98.754 67.691 98.7359 67.6646 98.7131 67.6424C98.6904 67.6202 98.6635 67.6027 98.634 67.5908C98.6045 67.579 98.5729 67.5731 98.5411 67.5734C98.5093 67.5738 98.4779 67.5804 98.4486 67.5928C95.4002 68.8901 92.632 68.7 90.4437 67.0434C90.3996 67.0084 90.3536 66.9759 90.3059 66.946C90.2509 66.9206 90.1883 66.9167 90.1306 66.935C90.0728 66.9533 90.024 66.9925 89.9938 67.0449C89.9636 67.0974 89.9541 67.1592 89.9673 67.2182C89.9805 67.2773 90.0154 67.3292 90.0651 67.3638C90.0827 67.3747 90.1108 67.3968 90.1489 67.4273C91.2994 68.3015 92.6853 68.8131 94.129 68.8968V68.8968Z" fill="#0C0C0C"/>
<path d="M94.0565 71.1877C94.3366 71.2049 94.6176 71.1982 94.8965 71.1676C94.9604 71.1609 95.0189 71.1291 95.0593 71.0792C95.0996 71.0294 95.1185 70.9656 95.1117 70.9019C95.105 70.8382 95.0731 70.7797 95.0232 70.7395C94.9732 70.6992 94.9093 70.6804 94.8454 70.6871C93.1675 70.8651 92.3669 70.098 92.333 70.065C92.2876 70.0196 92.2261 69.9941 92.1618 69.994C92.0976 69.9939 92.036 70.0193 91.9905 70.0646C91.945 70.1099 91.9194 70.1713 91.9193 70.2354C91.9192 70.2995 91.9447 70.361 91.9901 70.4064C92.5677 70.8972 93.2979 71.1733 94.0565 71.1877V71.1877Z" fill="#0C0C0C"/>
<path d="M102.456 59.0524C103.109 59.0524 103.638 58.5241 103.638 57.8725C103.638 57.2208 103.109 56.6926 102.456 56.6926C101.803 56.6926 101.273 57.2208 101.273 57.8725C101.273 58.5241 101.803 59.0524 102.456 59.0524Z" fill="#0C0C0C"/>
<path d="M90.9039 58.3291C91.5569 58.3291 92.0864 57.8009 92.0864 57.1493C92.0864 56.4976 91.5569 55.9694 90.9039 55.9694C90.2508 55.9694 89.7213 56.4976 89.7213 57.1493C89.7213 57.8009 90.2508 58.3291 90.9039 58.3291Z" fill="#0C0C0C"/>
<path d="M74.6494 65.706C71.732 65.7432 69.3276 62.6589 69.2895 59.748C69.2514 56.8371 71.5968 55.2018 74.5141 55.1651L76.0421 57.0962L77.1567 65.6742L74.6494 65.706Z" fill="#E98862"/>
<path d="M77.5499 61.0286C77.5499 61.0286 78.5352 46.6338 82.9098 45.7447C85.8233 45.1527 92.8887 49.2764 99.4327 48.031C102.296 47.4878 105.014 48.1931 105.29 49.5426C105.4 50.077 107.183 42.398 102.7 36.5721C99.1303 31.9323 87.4484 30.6225 82.1338 32.1433C67.4182 36.3557 73.912 55.7985 73.912 55.7985L74.5681 60.7612L77.5499 61.0286Z" fill="#0C0C0C"/>
<path d="M95.8906 65.4987H95.9094C96.8495 65.4891 98.4252 65.3688 98.4189 64.6669C98.4126 64.0853 96.7544 57.8253 96.5647 57.1133C96.5466 57.0542 96.5062 57.0044 96.4521 56.9743C96.3979 56.9443 96.3342 56.9364 96.2743 56.9522C96.2144 56.9681 96.163 57.0065 96.1309 57.0593C96.0988 57.1122 96.0884 57.1754 96.102 57.2357C96.8386 60.0083 97.9357 64.2767 97.9403 64.6727C97.8494 64.8399 96.8784 65.012 95.9048 65.022C95.8434 65.0233 95.7849 65.0481 95.7413 65.0913C95.6977 65.1344 95.6723 65.1926 95.6705 65.2538C95.6687 65.3151 95.6905 65.3747 95.7315 65.4203C95.7724 65.466 95.8294 65.4942 95.8906 65.4992V65.4987Z" fill="#0C0C0C"/>
<path d="M99.0998 51.4741C100.088 51.2028 101.131 51.2028 102.119 51.4741C102.604 51.6043 103.067 51.8065 103.492 52.0741C103.913 52.336 104.298 52.6499 104.639 53.0083C104.705 53.0715 104.743 53.1578 104.745 53.2486C104.748 53.3395 104.714 53.4277 104.652 53.4943C104.59 53.561 104.505 53.6007 104.414 53.6052C104.323 53.6096 104.234 53.5783 104.166 53.518L104.144 53.4997C103.828 53.2077 103.476 52.9566 103.097 52.7522C102.726 52.549 102.325 52.4031 101.909 52.3193C101.091 52.1482 100.242 52.1956 99.4486 52.4568L99.4151 52.4685C99.2841 52.5147 99.1401 52.5071 99.0147 52.4474C98.8893 52.3876 98.7929 52.2806 98.7466 52.1499C98.7003 52.0192 98.7079 51.8755 98.7678 51.7504C98.8276 51.6253 98.9349 51.5291 99.0659 51.4829L99.0998 51.4741Z" fill="#0C0C0C"/>
<path d="M92.1035 52.067C91.3518 51.7025 90.5168 51.5426 89.6832 51.6036C89.2601 51.6311 88.8437 51.7224 88.448 51.8744C88.0457 52.0268 87.6642 52.2289 87.3124 52.476L87.2898 52.4911C87.2142 52.5394 87.1229 52.5568 87.0349 52.5397C86.9468 52.5226 86.8687 52.4723 86.8169 52.3992C86.765 52.3262 86.7434 52.236 86.7564 52.1475C86.7695 52.0589 86.8162 51.9787 86.8869 51.9237C87.2732 51.6138 87.6971 51.3538 88.1486 51.1499C88.6057 50.9416 89.0915 50.8027 89.5899 50.7379C90.6054 50.5998 91.6394 50.7381 92.5826 51.1382C92.7103 51.1936 92.8107 51.2974 92.8618 51.4266C92.9128 51.5559 92.9103 51.7001 92.8548 51.8276C92.7992 51.955 92.6952 52.0552 92.5657 52.1061C92.4361 52.1571 92.2916 52.1546 92.1638 52.0992L92.1349 52.0854L92.1035 52.067Z" fill="#0C0C0C"/>
<path d="M97.6936 41.5654C99.853 41.1152 101.065 38.1795 100.401 35.0082C99.7371 31.837 97.4483 29.6311 95.2889 30.0812C93.1295 30.5314 91.9173 33.4671 92.5813 36.6384C93.2454 39.8096 95.5342 42.0155 97.6936 41.5654Z" fill="#0C0C0C"/>
<path d="M218.128 329.961C218.128 329.961 220.374 341.573 231.27 342.22C242.166 342.867 239.804 351.529 239.804 351.529H198.163V330.77L218.128 329.961Z" fill="#367CFF"/>
<path d="M138.909 322.629C138.909 322.629 135.786 334.038 145.278 339.417C154.769 344.797 148.817 351.529 148.817 351.529L111.452 333.187L120.635 314.56L138.909 322.629Z" fill="#367CFF"/>
<path d="M115.766 319.406L147.276 220.222H90.1602C78.6868 220.222 73.904 210.515 73.904 199.067C73.904 187.62 85.1831 177.585 96.6556 177.585H173.741C180.738 177.585 188.585 181.855 192.425 187.692C196.266 193.529 195.227 202.573 192.445 208.98L141.987 331.259" fill="#262626"/>
<path opacity="0.8" d="M115.766 319.406L147.276 220.222H90.1602C78.6868 220.222 73.904 210.515 73.904 199.067C73.904 187.62 85.1831 177.585 96.6556 177.585H173.741C180.738 177.585 188.585 181.855 192.425 187.692C196.266 193.529 195.227 202.573 192.445 208.98L141.987 331.259" fill="#0A0A0A"/>
<path d="M195.768 340.745L143.082 220.222L73.9032 220.218C57.6935 218.95 50.2697 210.086 50.5059 198.641C50.7387 187.342 56.4728 176.181 67.7465 176.181H160.987C169.329 176.352 175.891 185.549 178.985 193.28L222.785 333.366" fill="#262626"/>
<path d="M45.7875 176.319C45.7875 176.319 42.7153 196.31 47.5852 207.424C53.6648 221.299 76.4558 220.218 76.4558 220.218L75.1715 176.181L45.7875 176.319Z" fill="#262626"/>
<path d="M180.968 175.926L132.101 165.822C130.065 165.401 128.168 164.475 126.586 163.128C125.004 161.782 123.788 160.059 123.05 158.119L103.83 107.583C103.245 106.067 102.965 104.45 103.008 102.825C103.051 101.2 103.416 99.6003 104.08 98.1166C104.745 96.6328 105.697 95.2947 106.881 94.1791C108.065 93.0634 109.459 92.1923 110.982 91.6156C112.505 91.039 114.127 90.7683 115.755 90.819C117.383 90.8697 118.985 91.2408 120.468 91.911C121.952 92.5813 123.289 93.5374 124.401 94.7246C125.513 95.9117 126.38 97.3064 126.95 98.8287L143.763 143.033L185.987 151.763C185.987 151.763 181.815 176.101 180.968 175.926Z" fill="#367CFF"/>
<path d="M124.448 120.416C123.884 127.032 119.884 168.302 119.34 176.45H45.8198C45.3973 169.101 44.0259 137.9 42.4238 123.53C40.895 109.816 40.3402 101.991 42.1014 97.7294C45.2076 90.213 52.9806 87.5085 59.6762 86.604C63.7643 86.0521 69.9134 85.656 69.9134 85.656C69.9134 85.656 70.4344 96.1651 82.849 96.7501C99.7488 97.5439 98.6203 85.656 98.7041 85.656C101.442 85.656 116.345 87.6427 120.071 90.066C125.334 93.4891 126.89 98.1535 126.951 102.439C127.022 107.374 125.088 112.914 124.448 120.416Z" fill="#367CFF"/>
<path d="M121.559 154.139H121.542C121.514 154.136 121.487 154.129 121.463 154.116C121.438 154.104 121.417 154.086 121.399 154.065C121.381 154.045 121.368 154.02 121.359 153.994C121.351 153.968 121.348 153.94 121.35 153.913L123.259 131.036C123.26 131.009 123.267 130.982 123.28 130.957C123.292 130.932 123.309 130.91 123.33 130.893C123.352 130.875 123.376 130.861 123.403 130.853C123.429 130.845 123.457 130.842 123.484 130.845C123.512 130.848 123.539 130.855 123.563 130.868C123.587 130.88 123.609 130.898 123.627 130.919C123.645 130.94 123.658 130.964 123.667 130.99C123.675 131.016 123.678 131.044 123.676 131.071L121.767 153.948C121.763 154 121.739 154.048 121.7 154.084C121.662 154.119 121.611 154.139 121.559 154.139Z" fill="#0C0C0C"/>
<path d="M156.573 167.869L172.705 118.39C172.988 117.521 173.54 116.763 174.282 116.226C175.023 115.688 175.916 115.399 176.832 115.399H246.741C247.426 115.399 248.102 115.561 248.712 115.871C249.322 116.182 249.851 116.632 250.253 117.185C250.656 117.738 250.921 118.378 251.028 119.053C251.135 119.729 251.081 120.419 250.869 121.07L230.55 170.55C230.266 171.419 229.714 172.177 228.973 172.714C228.232 173.252 227.339 173.541 226.422 173.541H160.701C160.016 173.541 159.34 173.379 158.729 173.069C158.119 172.758 157.591 172.308 157.188 171.755C156.785 171.201 156.52 170.561 156.413 169.885C156.306 169.21 156.361 168.519 156.573 167.869Z" fill="white"/>
<path d="M156.573 167.869L172.705 118.39C172.988 117.521 173.54 116.763 174.282 116.226C175.023 115.688 175.916 115.399 176.832 115.399H246.741C247.426 115.399 248.102 115.561 248.712 115.871C249.322 116.182 249.851 116.632 250.253 117.185C250.656 117.738 250.921 118.378 251.028 119.053C251.135 119.729 251.081 120.419 250.869 121.07L230.55 170.55C230.266 171.419 229.714 172.177 228.973 172.714C228.232 173.252 227.339 173.541 226.422 173.541H160.701C160.016 173.541 159.34 173.379 158.729 173.069C158.119 172.758 157.591 172.308 157.188 171.755C156.785 171.201 156.52 170.561 156.413 169.885C156.306 169.21 156.361 168.519 156.573 167.869Z" fill="white"/>
<path d="M169.733 169.527H125.739C124.642 169.527 123.754 170.414 123.754 171.507V171.558C123.754 172.652 124.642 173.539 125.739 173.539H169.733C170.829 173.539 171.717 172.652 171.717 171.558V171.507C171.717 170.414 170.829 169.527 169.733 169.527Z" fill="white"/>
<path d="M169.733 169.527H125.739C124.642 169.527 123.754 170.414 123.754 171.507V171.558C123.754 172.652 124.642 173.539 125.739 173.539H169.733C170.829 173.539 171.717 172.652 171.717 171.558V171.507C171.717 170.414 170.829 169.527 169.733 169.527Z" fill="white"/>
<path d="M201.627 153.761C205.434 153.761 208.52 150.681 208.52 146.883C208.52 143.085 205.434 140.005 201.627 140.005C197.821 140.005 194.734 143.085 194.734 146.883C194.734 150.681 197.821 153.761 201.627 153.761Z" fill="white"/>
<path d="M152.896 156.278L141.916 152.438L143.492 152.33C144.001 152.285 144.473 152.049 144.813 151.669C145.154 151.29 145.337 150.796 145.327 150.287C145.312 150.025 145.244 149.768 145.127 149.533C145.009 149.298 144.845 149.089 144.644 148.919C144.443 148.749 144.21 148.621 143.958 148.544C143.706 148.467 143.441 148.443 143.179 148.471L123.754 150.531L124.256 156.76C124.413 158.694 125.145 160.538 126.359 162.055C127.573 163.571 129.213 164.692 131.069 165.272L139.481 167.887C139.916 168.031 140.387 168.021 140.815 167.859C141.243 167.697 141.602 167.392 141.83 166.996C142.029 166.634 142.106 166.218 142.051 165.809C141.997 165.4 141.812 165.019 141.525 164.722C141.544 164.709 141.56 164.692 141.571 164.673C141.583 164.653 141.591 164.632 141.594 164.609C141.597 164.587 141.596 164.564 141.59 164.542C141.584 164.52 141.573 164.499 141.559 164.482L143.109 164.967C143.592 165.129 144.119 165.102 144.584 164.891C145.048 164.68 145.414 164.301 145.609 163.83C145.769 163.404 145.772 162.935 145.619 162.506C145.466 162.077 145.166 161.716 144.772 161.486C144.79 161.476 144.806 161.463 144.819 161.447L145.457 161.647C145.891 161.791 146.362 161.781 146.79 161.619C147.219 161.456 147.577 161.151 147.805 160.755C148.046 160.316 148.108 159.802 147.976 159.319C147.845 158.836 147.532 158.422 147.102 158.165C147.106 158.152 147.108 158.139 147.108 158.125L151.68 159.724C151.908 159.807 152.149 159.843 152.391 159.831C152.632 159.82 152.869 159.76 153.087 159.657C153.306 159.554 153.501 159.408 153.663 159.229C153.825 159.049 153.949 158.84 154.029 158.612C154.109 158.384 154.143 158.143 154.129 157.902C154.115 157.661 154.053 157.426 153.947 157.209C153.841 156.992 153.693 156.798 153.512 156.639C153.33 156.479 153.119 156.357 152.89 156.28L152.896 156.278Z" fill="#E98862"/>
<path opacity="0.2" d="M146.934 158.302C146.913 158.302 146.892 158.298 146.872 158.291L142.449 156.687C142.404 156.67 142.367 156.636 142.347 156.592C142.326 156.548 142.324 156.498 142.341 156.453C142.358 156.408 142.392 156.371 142.436 156.351C142.479 156.33 142.53 156.328 142.575 156.345L146.998 157.95C147.038 157.964 147.072 157.992 147.094 158.029C147.115 158.067 147.123 158.11 147.115 158.152C147.108 158.194 147.086 158.232 147.053 158.26C147.02 158.287 146.979 158.302 146.936 158.302H146.934Z" fill="#0A0A0A"/>
<path opacity="0.2" d="M144.698 161.511C144.677 161.511 144.657 161.507 144.637 161.5L141.151 160.266C141.128 160.258 141.107 160.246 141.088 160.23C141.07 160.215 141.055 160.195 141.044 160.173C141.034 160.152 141.027 160.128 141.026 160.104C141.024 160.08 141.028 160.055 141.036 160.033C141.044 160.01 141.057 159.989 141.073 159.971C141.089 159.953 141.109 159.938 141.131 159.928C141.153 159.918 141.177 159.912 141.201 159.912C141.225 159.911 141.25 159.915 141.272 159.923L144.759 161.158C144.799 161.172 144.833 161.2 144.855 161.237C144.877 161.274 144.885 161.317 144.877 161.36C144.87 161.402 144.848 161.44 144.815 161.468C144.783 161.495 144.741 161.511 144.698 161.511V161.511Z" fill="#0A0A0A"/>
<path opacity="0.2" d="M141.415 164.767C141.393 164.766 141.371 164.762 141.35 164.754L139.717 164.133C139.672 164.116 139.636 164.082 139.616 164.037C139.596 163.993 139.595 163.943 139.612 163.898C139.629 163.853 139.664 163.817 139.708 163.797C139.752 163.778 139.802 163.776 139.847 163.793L141.48 164.415C141.52 164.43 141.554 164.458 141.575 164.495C141.596 164.533 141.603 164.576 141.595 164.618C141.588 164.66 141.565 164.697 141.533 164.725C141.5 164.752 141.458 164.767 141.416 164.767H141.415Z" fill="#0A0A0A"/>
<path d="M132.352 146.845L86.2906 146.814L68.8654 104.401L42.871 115.306L64.611 165.643L64.8233 166.144C65.8869 168.591 67.6786 170.653 69.9555 172.049C72.2324 173.446 74.8846 174.111 77.5529 173.954L133.047 170.683L132.352 146.845Z" fill="#367CFF"/>
<path d="M76.7903 174.185C74.2081 174.18 71.6831 173.425 69.524 172.012C67.3648 170.599 65.665 168.589 64.6323 166.227L64.4196 165.726L45.8935 122.836L46.2779 122.669L65.0163 166.063C66.0678 168.466 67.8317 170.491 70.0708 171.864C72.3098 173.238 74.9167 173.894 77.5407 173.745L132.832 170.486L132.147 147.054L86.1495 147.023L72.75 114.412L73.1377 114.254L86.4297 146.606L132.553 146.637L133.262 170.88L133.059 170.892L77.5667 174.162C77.3075 174.177 77.0474 174.185 76.7903 174.185Z" fill="#0C0C0C"/>
<path d="M25.5577 177.545L7.89272 351.917L8.72594 352.001L26.3909 177.629L25.5577 177.545Z" fill="#494949"/>
<path d="M98.5426 177.545L80.8777 351.916L81.7109 352L99.3759 177.629L98.5426 177.545Z" fill="#494949"/>
<path d="M250.726 177.543L249.893 177.627L267.546 351.999L268.379 351.915L250.726 177.543Z" fill="#494949"/>
<path d="M266.645 174.162H10.7954C8.90049 174.162 7.36432 175.695 7.36432 177.585C7.36432 179.476 8.90049 181.008 10.7954 181.008H266.645C268.539 181.008 270.076 179.476 270.076 177.585C270.076 175.695 268.539 174.162 266.645 174.162Z" fill="white"/>
<path opacity="0.8" d="M266.645 174.162H10.7954C8.90049 174.162 7.36432 175.695 7.36432 177.585C7.36432 179.476 8.90049 181.008 10.7954 181.008H266.645C268.539 181.008 270.076 179.476 270.076 177.585C270.076 175.695 268.539 174.162 266.645 174.162Z" fill="white"/>
<path d="M266.645 181.426H10.7971C10.2882 181.432 9.78327 181.336 9.31155 181.145C8.83984 180.955 8.41069 180.673 8.04894 180.316C7.68718 179.958 7.4 179.533 7.20401 179.064C7.00802 178.596 6.9071 178.093 6.9071 177.585C6.9071 177.077 7.00802 176.575 7.20401 176.106C7.4 175.637 7.68718 175.212 8.04894 174.855C8.41069 174.498 8.83984 174.215 9.31155 174.025C9.78327 173.834 10.2882 173.739 10.7971 173.744H266.645C267.154 173.739 267.659 173.834 268.13 174.025C268.602 174.215 269.031 174.498 269.393 174.855C269.755 175.212 270.042 175.637 270.238 176.106C270.434 176.575 270.535 177.077 270.535 177.585C270.535 178.093 270.434 178.596 270.238 179.064C270.042 179.533 269.755 179.958 269.393 180.316C269.031 180.673 268.602 180.955 268.13 181.145C267.659 181.336 267.154 181.432 266.645 181.426ZM10.7971 174.58C10.3986 174.575 10.003 174.649 9.63346 174.798C9.26389 174.947 8.92761 175.168 8.64411 175.447C8.36062 175.727 8.13554 176.06 7.98193 176.427C7.82831 176.794 7.74921 177.187 7.74921 177.585C7.74921 177.983 7.82831 178.377 7.98193 178.744C8.13554 179.111 8.36062 179.443 8.64411 179.723C8.92761 180.003 9.26389 180.223 9.63346 180.372C10.003 180.521 10.3986 180.595 10.7971 180.591H266.645C267.043 180.595 267.439 180.521 267.809 180.372C268.178 180.223 268.514 180.003 268.798 179.723C269.081 179.443 269.306 179.111 269.46 178.744C269.614 178.377 269.693 177.983 269.693 177.585C269.693 177.187 269.614 176.794 269.46 176.427C269.306 176.06 269.081 175.727 268.798 175.447C268.514 175.168 268.178 174.947 267.809 174.798C267.439 174.649 267.043 174.575 266.645 174.58H10.7971Z" fill="white"/>
<path d="M266.644 174.162H86.5704C84.6754 174.162 83.1392 175.695 83.1392 177.585C83.1392 179.476 84.6754 181.008 86.5704 181.008H266.644C268.539 181.008 270.076 179.476 270.076 177.585C270.076 175.695 268.539 174.162 266.644 174.162Z" fill="white"/>
<path d="M266.645 181.426H86.5704C85.5563 181.416 84.5874 181.006 83.8741 180.287C83.1608 179.568 82.7607 178.597 82.7607 177.585C82.7607 176.573 83.1608 175.602 83.8741 174.883C84.5874 174.164 85.5563 173.755 86.5704 173.744H266.645C267.154 173.739 267.659 173.834 268.13 174.025C268.602 174.215 269.031 174.498 269.393 174.855C269.755 175.212 270.042 175.637 270.238 176.106C270.434 176.575 270.535 177.077 270.535 177.585C270.535 178.093 270.434 178.596 270.238 179.064C270.042 179.533 269.755 179.958 269.393 180.316C269.031 180.673 268.602 180.955 268.13 181.145C267.659 181.336 267.154 181.432 266.645 181.426ZM86.5704 174.58C85.7776 174.589 85.0205 174.91 84.4633 175.472C83.906 176.035 83.5935 176.794 83.5935 177.585C83.5935 178.376 83.906 179.135 84.4633 179.698C85.0205 180.261 85.7776 180.581 86.5704 180.591H266.645C267.043 180.595 267.439 180.521 267.809 180.372C268.178 180.223 268.514 180.003 268.798 179.723C269.081 179.443 269.306 179.111 269.46 178.744C269.614 178.377 269.693 177.983 269.693 177.585C269.693 177.187 269.614 176.794 269.46 176.427C269.306 176.06 269.081 175.727 268.798 175.447C268.514 175.168 268.178 174.947 267.809 174.798C267.439 174.649 267.043 174.575 266.645 174.58H86.5704Z" fill="white"/>
<path d="M273.546 296.411C273.491 296.411 273.436 296.4 273.385 296.379C273.335 296.358 273.288 296.327 273.25 296.288C272.66 295.7 271.698 284.9 269.108 252.743C268.048 239.585 267.047 227.157 266.316 219.604C266.264 219.065 266.054 219.002 265.985 218.982C264.985 218.681 261.944 221.074 260.246 223.169C260.176 223.255 260.075 223.31 259.964 223.322C259.854 223.334 259.743 223.301 259.657 223.231C259.57 223.162 259.515 223.061 259.503 222.95C259.492 222.84 259.524 222.73 259.594 222.644C260.717 221.258 264.377 217.626 266.226 218.181C266.599 218.293 267.064 218.617 267.15 219.524C267.881 227.084 268.882 239.515 269.942 252.676C271.516 272.217 273.299 294.355 273.886 295.749C273.931 295.812 273.957 295.885 273.963 295.962C273.969 296.039 273.953 296.115 273.918 296.184C273.883 296.252 273.83 296.309 273.764 296.35C273.698 296.39 273.623 296.411 273.546 296.411V296.411Z" fill="#494949"/>
<path d="M265.24 233.464C272.188 227.907 274.491 219.257 270.384 214.144C266.276 209.031 257.314 209.391 250.365 214.948C243.417 220.506 241.114 229.156 245.221 234.269C249.329 239.382 258.292 239.021 265.24 233.464Z" fill="#0CBC8B"/>
<path opacity="0.2" d="M265.24 233.464C272.188 227.907 274.491 219.257 270.384 214.144C266.276 209.031 257.314 209.391 250.365 214.948C243.417 220.506 241.114 229.156 245.221 234.269C249.329 239.382 258.292 239.021 265.24 233.464Z" fill="white"/>
<path d="M247.17 235.569C247.13 235.569 247.091 235.558 247.057 235.536C247.024 235.515 246.997 235.485 246.98 235.449C246.963 235.413 246.957 235.373 246.962 235.334C246.967 235.294 246.983 235.257 247.008 235.227L266.811 211.4C266.846 211.357 266.897 211.33 266.953 211.325C267.008 211.32 267.063 211.337 267.106 211.372C267.148 211.408 267.175 211.458 267.181 211.514C267.186 211.569 267.169 211.624 267.133 211.667L247.331 235.494C247.311 235.517 247.286 235.536 247.259 235.549C247.231 235.562 247.2 235.569 247.17 235.569V235.569Z" fill="white"/>
<path d="M277.865 291.303C277.798 291.303 277.732 291.287 277.672 291.257C277.613 291.226 277.562 291.182 277.523 291.127C277.485 291.073 277.459 291.01 277.45 290.944C277.441 290.878 277.447 290.811 277.469 290.748L284.908 269.404C285.127 268.777 285.5 268.214 285.994 267.768C286.487 267.323 287.084 267.007 287.731 266.851C288.378 266.696 289.054 266.704 289.697 266.877C290.339 267.049 290.929 267.379 291.41 267.838L295.343 271.586C295.423 271.662 295.47 271.768 295.472 271.879C295.475 271.989 295.433 272.097 295.357 272.177C295.28 272.257 295.174 272.303 295.063 272.306C294.952 272.309 294.845 272.267 294.764 272.19L290.832 268.442C290.452 268.08 289.987 267.819 289.479 267.683C288.972 267.547 288.438 267.54 287.927 267.663C287.417 267.786 286.945 268.035 286.556 268.387C286.166 268.739 285.872 269.183 285.699 269.678L278.261 291.023C278.232 291.105 278.178 291.176 278.107 291.226C278.036 291.276 277.952 291.303 277.865 291.303Z" fill="#494949"/>
<path d="M306.329 283.403C311.479 279.336 311.173 270.391 305.646 263.424C300.119 256.457 291.464 254.106 286.314 258.173C281.165 262.24 281.471 271.185 286.998 278.152C292.525 285.119 301.18 287.47 306.329 283.403Z" fill="#0CBC8B"/>
<path d="M270.169 295.05C270.075 295.05 269.983 295.018 269.909 294.96C269.836 294.902 269.783 294.82 269.762 294.729L257.277 242.651C257.191 242.296 257.009 241.972 256.751 241.713C256.493 241.455 256.168 241.272 255.813 241.186C255.457 241.1 255.085 241.113 254.737 241.224C254.388 241.335 254.077 241.54 253.838 241.816L249.99 246.253C249.954 246.295 249.91 246.329 249.861 246.355C249.811 246.38 249.758 246.395 249.703 246.399C249.647 246.403 249.592 246.397 249.539 246.379C249.487 246.362 249.438 246.334 249.396 246.298C249.355 246.262 249.32 246.218 249.296 246.169C249.271 246.119 249.256 246.065 249.253 246.01C249.249 245.955 249.256 245.9 249.274 245.848C249.292 245.795 249.32 245.747 249.357 245.706L253.204 241.269C253.545 240.877 253.987 240.586 254.482 240.428C254.978 240.27 255.507 240.252 256.012 240.375C256.517 240.498 256.979 240.757 257.346 241.125C257.712 241.493 257.97 241.954 258.091 242.459L270.574 294.537C270.599 294.644 270.581 294.757 270.523 294.851C270.465 294.945 270.372 295.012 270.264 295.038C270.233 295.046 270.201 295.049 270.169 295.05V295.05Z" fill="#494949"/>
<path d="M265.562 257.822C267.08 249.066 263.064 241.063 256.593 239.947C250.121 238.83 243.645 245.023 242.128 253.778C240.61 262.534 244.626 270.537 251.097 271.653C257.569 272.77 264.045 266.577 265.562 257.822Z" fill="#0CBC8B"/>
<path d="M273.546 296.411C273.529 296.411 273.512 296.41 273.495 296.408C273.44 296.401 273.387 296.384 273.339 296.357C273.291 296.33 273.249 296.294 273.215 296.25C273.182 296.207 273.157 296.158 273.142 296.105C273.127 296.052 273.123 295.997 273.13 295.942L281.101 231.367C281.188 230.663 281.476 230 281.932 229.456C282.388 228.912 282.991 228.512 283.67 228.302C284.348 228.092 285.073 228.082 285.757 228.274C286.441 228.465 287.055 228.85 287.525 229.381L296.636 239.677C296.71 239.76 296.747 239.869 296.74 239.98C296.733 240.09 296.682 240.193 296.599 240.267C296.516 240.34 296.407 240.378 296.296 240.371C296.185 240.364 296.081 240.313 296.008 240.23L286.897 229.934C286.534 229.523 286.059 229.226 285.531 229.078C285.002 228.93 284.442 228.938 283.917 229.1C283.393 229.262 282.927 229.572 282.574 229.992C282.222 230.412 281.999 230.925 281.932 231.469L273.961 296.044C273.949 296.145 273.9 296.238 273.823 296.306C273.747 296.373 273.648 296.411 273.546 296.411V296.411Z" fill="#494949"/>
<path d="M305.981 245.399C309.159 239.665 305.419 231.53 297.627 227.229C289.834 222.928 280.94 224.09 277.762 229.824C274.583 235.558 278.323 243.693 286.115 247.994C293.908 252.295 302.802 251.133 305.981 245.399Z" fill="#0CBC8B"/>
<path opacity="0.2" d="M306.329 283.403C311.479 279.336 311.173 270.391 305.646 263.424C300.119 256.457 291.464 254.106 286.314 258.173C281.165 262.24 281.471 271.185 286.998 278.152C292.525 285.119 301.18 287.47 306.329 283.403Z" fill="white"/>
<path opacity="0.5" d="M265.562 257.822C267.08 249.066 263.064 241.063 256.593 239.947C250.121 238.83 243.645 245.023 242.128 253.778C240.61 262.534 244.626 270.537 251.097 271.653C257.569 272.77 264.045 266.577 265.562 257.822Z" fill="white"/>
<path opacity="0.5" d="M305.981 245.399C309.159 239.665 305.419 231.53 297.627 227.229C289.834 222.928 280.94 224.09 277.762 229.824C274.583 235.558 278.323 243.693 286.115 247.994C293.908 252.295 302.802 251.133 305.981 245.399Z" fill="white"/>
<path d="M283.741 351.203H263.35L259.971 286.107H287.12L283.741 351.203Z" fill="white"/>
<path opacity="0.3" d="M283.741 351.203H263.35L259.971 286.107H287.12L283.741 351.203Z" fill="white"/>
<path d="M306.33 283.609C306.298 283.609 306.267 283.602 306.239 283.588C306.21 283.574 306.185 283.554 306.166 283.53L286.15 258.3C286.116 258.256 286.1 258.201 286.106 258.146C286.113 258.091 286.141 258.041 286.184 258.006C286.228 257.972 286.283 257.956 286.338 257.963C286.393 257.969 286.444 257.997 286.478 258.04L306.494 283.27C306.518 283.301 306.534 283.338 306.538 283.377C306.542 283.416 306.536 283.456 306.519 283.491C306.501 283.527 306.475 283.556 306.441 283.577C306.408 283.598 306.369 283.609 306.33 283.609V283.609Z" fill="white"/>
<path d="M304.649 247.42C304.605 247.42 304.562 247.405 304.526 247.378L278.913 228.718C278.869 228.685 278.839 228.636 278.83 228.582C278.821 228.527 278.835 228.471 278.868 228.426C278.901 228.381 278.95 228.351 279.005 228.343C279.06 228.334 279.116 228.348 279.161 228.381L304.773 247.041C304.808 247.068 304.834 247.104 304.847 247.146C304.86 247.188 304.86 247.233 304.846 247.274C304.832 247.316 304.805 247.352 304.77 247.378C304.734 247.403 304.691 247.417 304.647 247.417L304.649 247.42Z" fill="white"/>
<path d="M250.057 271.381C250.038 271.381 250.02 271.379 250.003 271.374C249.949 271.359 249.903 271.324 249.876 271.277C249.848 271.229 249.84 271.172 249.854 271.118L258.008 240.638C258.023 240.586 258.058 240.542 258.106 240.515C258.153 240.488 258.21 240.481 258.262 240.495C258.315 240.509 258.36 240.543 258.388 240.59C258.416 240.637 258.425 240.692 258.412 240.745L250.259 271.226C250.247 271.27 250.221 271.31 250.184 271.338C250.148 271.366 250.103 271.381 250.057 271.381V271.381Z" fill="white"/>
<path d="M293.585 351.79H0.293115C0.215376 351.79 0.140821 351.759 0.0858515 351.704C0.0308817 351.649 0 351.575 0 351.497C0 351.42 0.0308817 351.345 0.0858515 351.291C0.140821 351.236 0.215376 351.205 0.293115 351.205H293.584C293.662 351.205 293.737 351.236 293.792 351.291C293.847 351.345 293.877 351.42 293.877 351.497C293.877 351.575 293.847 351.649 293.792 351.704C293.737 351.759 293.662 351.79 293.584 351.79H293.585Z" fill="white"/>
<g opacity="0.65">
<path d="M293.585 351.79H0.293115C0.215376 351.79 0.140821 351.759 0.0858515 351.704C0.0308817 351.649 0 351.575 0 351.497C0 351.42 0.0308817 351.345 0.0858515 351.291C0.140821 351.236 0.215376 351.205 0.293115 351.205H293.584C293.662 351.205 293.737 351.236 293.792 351.291C293.847 351.345 293.877 351.42 293.877 351.497C293.877 351.575 293.847 351.649 293.792 351.704C293.737 351.759 293.662 351.79 293.584 351.79H293.585Z" fill="white"/>
</g>
</g>
<defs>
<clipPath id="clip0_2_13">
<rect width="310" height="352" fill="white"/>
</clipPath>
</defs>
</svg>
