<svg width="5232" height="5142" viewBox="0 0 5232 5142" fill="none" xmlns="http://www.w3.org/2000/svg">
<path d="M5232 2571C5232 3990.92 4060.78 5142 2616 5142C1171.22 5142 0 3990.92 0 2571C0 1151.08 1171.22 0 2616 0C4060.78 0 5232 1151.08 5232 2571Z" fill="black"/>
<path d="M5232 2571C5232 3990.92 4060.78 5142 2616 5142C1171.22 5142 0 3990.92 0 2571C0 1151.08 1171.22 0 2616 0C4060.78 0 5232 1151.08 5232 2571Z" stroke="#2563EB"/>
<path d="M3284.49 1325.73H3699.73V3130.02C3699.73 3322.01 3654.64 3492.13 3564.44 3640.36C3474.25 3787.71 3347.45 3903.8 3184.03 3988.63C3020.61 4072.57 2829.07 4114.54 2609.39 4114.54C2390.61 4114.54 2199.51 4072.57 2036.09 3988.63C1872.67 3903.8 1745.87 3787.71 1655.67 3640.36C1565.48 3492.13 1520.38 3322.01 1520.38 3130.02V1325.73H1934.29V3096.53C1934.29 3220.66 1961.52 3330.94 2016 3427.38C2071.36 3523.83 2149.5 3599.73 2250.41 3655.1C2351.31 3709.57 2470.98 3736.81 2609.39 3736.81C2748.7 3736.81 2868.8 3709.57 2969.71 3655.1C3071.51 3599.73 3149.2 3523.83 3202.78 3427.38C3257.26 3330.94 3284.49 3220.66 3284.49 3096.53V1325.73Z" fill="#FB610A"/>
<ellipse cx="2616" cy="2948" rx="346" ry="377" fill="#FF7A00"/>
</svg>
